<svg width="42" height="42" viewBox="0 0 42 42" fill="none" xmlns="http://www.w3.org/2000/svg">
<rect x="0.5" y="0.5" width="41" height="41" rx="20.5" stroke="white"/>
<path d="M13.1177 23.6145C12.431 22.325 12.0729 20.886 12.075 19.425C12.075 14.4958 16.0708 10.5 21 10.5C25.9293 10.5 29.925 14.4958 29.925 19.425C29.9286 21.5304 29.1844 23.5687 27.825 25.1764L27.8145 25.1895C27.8109 25.1927 27.8077 25.1969 27.8051 25.2H27.825L22.5288 30.8228C22.3325 31.0312 22.0956 31.1972 21.8328 31.3107C21.5699 31.4242 21.2866 31.4828 21.0003 31.4828C20.714 31.4828 20.4307 31.4242 20.1678 31.3107C19.905 31.1972 19.6681 31.0312 19.4718 30.8228L14.175 25.2H14.195L14.1866 25.19L14.1855 25.189C14.1477 25.1438 14.1099 25.0987 14.0727 25.0525C13.7085 24.6049 13.3885 24.1232 13.1172 23.614L13.1177 23.6145ZM20.9979 22.8375C21.8334 22.8375 22.6346 22.5056 23.2253 21.9149C23.8161 21.3241 24.1479 20.5229 24.1479 19.6875C24.1479 18.8521 23.8161 18.0509 23.2253 17.4601C22.6346 16.8694 21.8334 16.5375 20.9979 16.5375C20.1625 16.5375 19.3613 16.8694 18.7705 17.4601C18.1798 18.0509 17.8479 18.8521 17.8479 19.6875C17.8479 20.5229 18.1798 21.3241 18.7705 21.9149C19.3613 22.5056 20.1625 22.8375 20.9979 22.8375Z" fill="#F8F8F8"/>
</svg>
