<svg width="368" height="316" viewBox="0 0 368 316" fill="none" xmlns="http://www.w3.org/2000/svg">
<path d="M297.777 10.5204C260.205 13.3518 203.814 53.5344 225.215 138.01C246.616 222.485 197.647 236.039 170.487 232.257" stroke="white"/>
<circle cx="12.0646" cy="12.0646" r="11.5646" transform="matrix(-1 0 0 1 154.646 218.386)" stroke="white"/>
<path d="M112.969 230.451C82.9899 227.709 23.2518 240.98 24.1293 316" stroke="white"/>
<path d="M211.131 187.676C211.496 198.826 203.782 220.141 170.001 216.192" stroke="white"/>
<path d="M28.2824 95.8924C27.2824 96.4697 27.2824 97.9131 28.2824 98.4904L57.944 115.616C58.944 116.193 60.194 115.471 60.194 114.317L60.194 80.0663C60.194 78.9116 58.944 78.1899 57.944 78.7672L28.2824 95.8924Z" stroke="#A693FF" stroke-width="3"/>
<path d="M4.75 50.6072C3.08334 51.5695 3.08334 53.9751 4.75 54.9373L23.718 65.8885C25.3846 66.8507 27.468 65.6479 27.468 63.7234L27.468 41.8211C27.468 39.8966 25.3846 38.6938 23.718 39.656L4.75 50.6072Z" stroke="white"/>
</svg>
